G04 DipTrace 3.2.0.1*
G04 BottomSilk.gbr*
%MOMM*%
G04 #@! TF.FileFunction,Legend,Bot*
G04 #@! TF.Part,Single*
%ADD10C,0.25*%
%ADD38C,0.19608*%
%ADD39C,0.15686*%
%FSLAX35Y35*%
G04*
G71*
G90*
G75*
G01*
G04 BotSilk*
%LPD*%
X1872419Y1762423D2*
D10*
Y1914823D1*
X2279581Y1762423D2*
X1872419D1*
X2279581D2*
Y1914823D1*
X1872419D1*
X2279581Y2279950D2*
Y2127550D1*
X1872419Y2279950D2*
X2279581D1*
X1872419D2*
Y2127550D1*
X2279581D1*
X1872419Y1952927D2*
Y2105327D1*
X2279581Y1952927D2*
X1872419D1*
X2279581D2*
Y2105327D1*
X1872419D1*
X1237800Y2375581D2*
X1390200D1*
X1237800Y1968419D2*
Y2375581D1*
Y1968419D2*
X1390200D1*
Y2375581D1*
X2761800D2*
X2914200D1*
X2761800Y1968419D2*
Y2375581D1*
Y1968419D2*
X2914200D1*
Y2375581D1*
X2206395Y1885883D2*
D38*
X2194182Y1892060D1*
X2175932Y1910170D1*
Y1782700D1*
X2100216Y1910170D2*
X2118466Y1904133D1*
X2130680Y1885883D1*
X2136716Y1855560D1*
Y1837310D1*
X2130680Y1806987D1*
X2118466Y1788737D1*
X2100216Y1782700D1*
X2088143D1*
X2069893Y1788737D1*
X2057820Y1806987D1*
X2051643Y1837310D1*
Y1855560D1*
X2057820Y1885883D1*
X2069893Y1904133D1*
X2088143Y1910170D1*
X2100216D1*
X2057820Y1885883D2*
X2130680Y1806987D1*
X2012428Y1910310D2*
Y1782700D1*
X1951641Y1867773D2*
X2012428Y1806987D1*
X1988141Y1831273D2*
X1945605Y1782700D1*
X2201647Y2147827D2*
Y2275296D1*
X2262433Y2190364D1*
X2171324D1*
X2126071Y2160040D2*
X2132108Y2153864D1*
X2126071Y2147827D1*
X2119894Y2153864D1*
X2126071Y2160040D1*
X2056392Y2147827D2*
X1995606Y2275296D1*
X2080679D1*
X1956390Y2275437D2*
Y2147827D1*
X1895603Y2232900D2*
X1956390Y2172114D1*
X1932103Y2196400D2*
X1889567Y2147827D1*
X2215520Y2076386D2*
X2203307Y2082563D1*
X2185057Y2100673D1*
Y1973204D1*
X2072982Y2100673D2*
X2133628D1*
X2139664Y2046063D1*
X2133628Y2052100D1*
X2115378Y2058277D1*
X2097268D1*
X2079018Y2052100D1*
X2066805Y2040027D1*
X2060768Y2021777D1*
Y2009704D1*
X2066805Y1991454D1*
X2079018Y1979240D1*
X2097268Y1973204D1*
X2115378D1*
X2133628Y1979240D1*
X2139664Y1985417D1*
X2145841Y1997490D1*
X1985053Y2100673D2*
X2003303Y2094636D1*
X2015516Y2076386D1*
X2021553Y2046063D1*
Y2027813D1*
X2015516Y1997490D1*
X2003303Y1979240D1*
X1985053Y1973204D1*
X1972980D1*
X1954730Y1979240D1*
X1942656Y1997490D1*
X1936480Y2027813D1*
Y2046063D1*
X1942656Y2076386D1*
X1954730Y2094636D1*
X1972980Y2100673D1*
X1985053D1*
X1942656Y2076386D2*
X2015516Y1997490D1*
X1266740Y2311521D2*
X1260564Y2299307D1*
X1242454Y2281057D1*
X1369923D1*
X1242454Y2205342D2*
X1248490Y2223591D1*
X1266740Y2235805D1*
X1297064Y2241841D1*
X1315314D1*
X1345637Y2235805D1*
X1363887Y2223591D1*
X1369923Y2205341D1*
Y2193268D1*
X1363887Y2175018D1*
X1345637Y2162945D1*
X1315314Y2156768D1*
X1297064D1*
X1266740Y2162945D1*
X1248490Y2175018D1*
X1242454Y2193268D1*
Y2205342D1*
X1266740Y2162945D2*
X1345637Y2235805D1*
X1242454Y2081053D2*
X1248490Y2099303D1*
X1266740Y2111516D1*
X1297064Y2117553D1*
X1315314D1*
X1345637Y2111516D1*
X1363887Y2099303D1*
X1369923Y2081053D1*
Y2068980D1*
X1363887Y2050730D1*
X1345636Y2038657D1*
X1315313Y2032480D1*
X1297063D1*
X1266740Y2038657D1*
X1248490Y2050730D1*
X1242454Y2068980D1*
Y2081053D1*
X1266740Y2038657D2*
X1345637Y2111516D1*
X2790740Y2311521D2*
X2784564Y2299307D1*
X2766454Y2281057D1*
X2893923D1*
X2766454Y2205342D2*
X2772490Y2223591D1*
X2790740Y2235805D1*
X2821064Y2241841D1*
X2839314D1*
X2869637Y2235805D1*
X2887887Y2223591D1*
X2893923Y2205341D1*
Y2193268D1*
X2887887Y2175018D1*
X2869637Y2162945D1*
X2839314Y2156768D1*
X2821064D1*
X2790740Y2162945D1*
X2772490Y2175018D1*
X2766454Y2193268D1*
Y2205342D1*
X2790740Y2162945D2*
X2869637Y2235805D1*
X2766454Y2081053D2*
X2772490Y2099303D1*
X2790740Y2111516D1*
X2821064Y2117553D1*
X2839314D1*
X2869637Y2111516D1*
X2887887Y2099303D1*
X2893923Y2081053D1*
Y2068980D1*
X2887887Y2050730D1*
X2869636Y2038657D1*
X2839313Y2032480D1*
X2821063D1*
X2790740Y2038657D1*
X2772490Y2050730D1*
X2766454Y2068980D1*
Y2081053D1*
X2790740Y2038657D2*
X2869637Y2111516D1*
X2721896Y1118442D2*
D39*
X2760867Y1220530D1*
X2799725Y1118442D1*
X2785125Y1152471D2*
X2736496D1*
X2690524Y1220530D2*
X2666153Y1118442D1*
X2641894Y1220530D1*
X2617636Y1118442D1*
X2593265Y1220530D1*
X2493834Y1205930D2*
X2503493Y1215701D1*
X2518093Y1220530D1*
X2537522D1*
X2552122Y1215701D1*
X2561893Y1205930D1*
Y1196271D1*
X2556951Y1186501D1*
X2552122Y1181671D1*
X2542463Y1176842D1*
X2513263Y1167071D1*
X2503493Y1162242D1*
X2498663Y1157301D1*
X2493834Y1147642D1*
Y1133042D1*
X2503493Y1123384D1*
X2518093Y1118442D1*
X2537522D1*
X2552122Y1123384D1*
X2561893Y1133042D1*
X2363704Y1220530D2*
X2324846Y1118442D1*
X2285988Y1220530D1*
X2254615Y1200988D2*
X2244844Y1205930D1*
X2230244Y1220418D1*
Y1118442D1*
X2194042Y1128213D2*
X2198872Y1123271D1*
X2194042Y1118442D1*
X2189101Y1123271D1*
X2194042Y1128213D1*
X2128528Y1220418D2*
X2143128Y1215588D1*
X2152899Y1200988D1*
X2157728Y1176730D1*
Y1162130D1*
X2152899Y1137871D1*
X2143128Y1123271D1*
X2128528Y1118442D1*
X2118870D1*
X2104270Y1123271D1*
X2094611Y1137871D1*
X2089670Y1162130D1*
Y1176730D1*
X2094611Y1200988D1*
X2104270Y1215588D1*
X2118870Y1220418D1*
X2128528D1*
X2094611Y1200988D2*
X2152899Y1137871D1*
X1959540Y1220530D2*
Y1118442D1*
X1910911Y1186501D2*
X1959540Y1137871D1*
X1940111Y1157301D2*
X1906082Y1118442D1*
X1874709Y1157301D2*
X1816422D1*
Y1167071D1*
X1821251Y1176842D1*
X1826080Y1181671D1*
X1835851Y1186501D1*
X1850451D1*
X1860109Y1181671D1*
X1869880Y1171901D1*
X1874709Y1157301D1*
Y1147642D1*
X1869880Y1133042D1*
X1860109Y1123384D1*
X1850451Y1118442D1*
X1835851D1*
X1826080Y1123384D1*
X1816422Y1133042D1*
X1785049Y1186501D2*
X1755849Y1118442D1*
X1726761Y1186501D1*
X1695389Y1220530D2*
X1690559Y1215701D1*
X1685618Y1220530D1*
X1690559Y1225471D1*
X1695389Y1220530D1*
X1690559Y1186501D2*
Y1118442D1*
X1654245Y1186501D2*
Y1118442D1*
Y1167071D2*
X1639645Y1181671D1*
X1629875Y1186501D1*
X1615387D1*
X1605616Y1181671D1*
X1600787Y1167071D1*
Y1118442D1*
X1545156Y1186501D2*
X1554814Y1181671D1*
X1564585Y1171901D1*
X1569414Y1157301D1*
Y1147642D1*
X1564585Y1133042D1*
X1554814Y1123384D1*
X1545156Y1118442D1*
X1530556D1*
X1520785Y1123384D1*
X1511127Y1133042D1*
X1506185Y1147642D1*
Y1157301D1*
X1511127Y1171901D1*
X1520785Y1181671D1*
X1530556Y1186501D1*
X1545156D1*
X1474813Y1220530D2*
Y1118442D1*
X1389982Y1196159D2*
X1404582D1*
X1414240Y1191330D1*
X1419182Y1186501D1*
X1424011Y1176730D1*
Y1157301D1*
X1419182Y1152471D1*
X1409411D1*
X1389982Y1157301D1*
X1385152Y1147642D1*
X1380323D1*
X1370552Y1157301D1*
X1365723Y1181559D1*
X1370552Y1196159D1*
X1375382Y1205930D1*
X1385152Y1215588D1*
X1394811Y1220418D1*
X1414240D1*
X1424011Y1215588D1*
X1433669Y1205930D1*
X1438611Y1196159D1*
X1443440Y1181559D1*
Y1157301D1*
X1438611Y1142701D1*
X1433669Y1133042D1*
X1424011Y1123271D1*
X1414240Y1118442D1*
X1394811D1*
X1385152Y1123271D1*
X1375382Y1133042D1*
X1389982Y1200988D2*
Y1157301D1*
X2987354Y4522523D2*
X2962983Y4420436D1*
X2938724Y4522523D1*
X2914466Y4420436D1*
X2890095Y4522523D1*
X2858723D2*
X2853893Y4517694D1*
X2848952Y4522523D1*
X2853893Y4527465D1*
X2858723Y4522523D1*
X2853893Y4488494D2*
Y4420436D1*
X2817579Y4488494D2*
Y4420436D1*
Y4469065D2*
X2802979Y4483665D1*
X2793209Y4488494D1*
X2778721D1*
X2768950Y4483665D1*
X2764121Y4469065D1*
Y4420436D1*
X2674461Y4522523D2*
Y4420436D1*
Y4473894D2*
X2684119Y4483665D1*
X2693890Y4488494D1*
X2708490D1*
X2718148Y4483665D1*
X2727919Y4473894D1*
X2732748Y4459294D1*
Y4449636D1*
X2727919Y4435036D1*
X2718148Y4425377D1*
X2708490Y4420436D1*
X2693890D1*
X2684119Y4425377D1*
X2674461Y4435036D1*
X2604230Y4522523D2*
X2613888D1*
X2623659Y4517694D1*
X2628488Y4503094D1*
Y4420436D1*
X2643088Y4488494D2*
X2609059D1*
X2514569D2*
Y4420436D1*
Y4473894D2*
X2524228Y4483665D1*
X2533999Y4488494D1*
X2548486D1*
X2558257Y4483665D1*
X2567915Y4473894D1*
X2572857Y4459294D1*
Y4449636D1*
X2567915Y4435036D1*
X2558257Y4425377D1*
X2548486Y4420436D1*
X2533999D1*
X2524228Y4425377D1*
X2514569Y4435036D1*
X2483197Y4488494D2*
Y4420436D1*
Y4459294D2*
X2478255Y4473894D1*
X2468597Y4483665D1*
X2458826Y4488494D1*
X2444226D1*
X2412853D2*
Y4420436D1*
Y4469065D2*
X2398253Y4483665D1*
X2388483Y4488494D1*
X2373995D1*
X2364224Y4483665D1*
X2359395Y4469065D1*
Y4420436D1*
Y4469065D2*
X2344795Y4483665D1*
X2335024Y4488494D1*
X2320537D1*
X2310766Y4483665D1*
X2305824Y4469065D1*
Y4420436D1*
X2274452Y4471423D2*
X2218298D1*
X2152896Y4522523D2*
Y4420436D1*
X2186925Y4522523D2*
X2118867D1*
X2087494Y4488494D2*
Y4439865D1*
X2082665Y4425377D1*
X2072894Y4420436D1*
X2058294D1*
X2048636Y4425377D1*
X2034036Y4439865D1*
Y4488494D2*
Y4420436D1*
X2002663Y4488494D2*
Y4420436D1*
Y4459294D2*
X1997722Y4473894D1*
X1988063Y4483665D1*
X1978292Y4488494D1*
X1963692D1*
X1932320Y4522523D2*
Y4420436D1*
Y4473894D2*
X1922549Y4483665D1*
X1912891Y4488494D1*
X1898291D1*
X1888632Y4483665D1*
X1878861Y4473894D1*
X1874032Y4459294D1*
Y4449636D1*
X1878861Y4435036D1*
X1888632Y4425377D1*
X1898291Y4420436D1*
X1912891D1*
X1922549Y4425377D1*
X1932320Y4435036D1*
X1842660Y4522523D2*
X1837830Y4517694D1*
X1832889Y4522523D1*
X1837830Y4527465D1*
X1842660Y4522523D1*
X1837830Y4488494D2*
Y4420436D1*
X1801516Y4488494D2*
Y4420436D1*
Y4469065D2*
X1786916Y4483665D1*
X1777146Y4488494D1*
X1762658D1*
X1752887Y4483665D1*
X1748058Y4469065D1*
Y4420436D1*
X1716685Y4459294D2*
X1658398D1*
Y4469065D1*
X1663227Y4478836D1*
X1668056Y4483665D1*
X1677827Y4488494D1*
X1692427D1*
X1702085Y4483665D1*
X1711856Y4473894D1*
X1716685Y4459294D1*
Y4449636D1*
X1711856Y4435036D1*
X1702085Y4425377D1*
X1692427Y4420436D1*
X1677827D1*
X1668056Y4425377D1*
X1658398Y4435036D1*
X1455380Y4498265D2*
X1460210Y4507923D1*
X1469980Y4517694D1*
X1479639Y4522523D1*
X1499068D1*
X1508839Y4517694D1*
X1518497Y4507923D1*
X1523439Y4498265D1*
X1528268Y4483665D1*
Y4459294D1*
X1523439Y4444806D1*
X1518497Y4435036D1*
X1508839Y4425377D1*
X1499068Y4420436D1*
X1479639D1*
X1469980Y4425377D1*
X1460210Y4435036D1*
X1455380Y4444806D1*
X1399749Y4488494D2*
X1409408Y4483665D1*
X1419178Y4473894D1*
X1424008Y4459294D1*
Y4449636D1*
X1419178Y4435036D1*
X1409408Y4425377D1*
X1399749Y4420436D1*
X1385149D1*
X1375378Y4425377D1*
X1365720Y4435036D1*
X1360778Y4449636D1*
Y4459294D1*
X1365720Y4473894D1*
X1375378Y4483665D1*
X1385149Y4488494D1*
X1399749D1*
X1329406D2*
Y4420436D1*
Y4469065D2*
X1314806Y4483665D1*
X1305035Y4488494D1*
X1290547D1*
X1280777Y4483665D1*
X1275947Y4469065D1*
Y4420436D1*
X1244575Y4488494D2*
Y4420436D1*
Y4469065D2*
X1229975Y4483665D1*
X1220204Y4488494D1*
X1205716D1*
X1195946Y4483665D1*
X1191116Y4469065D1*
Y4420436D1*
M02*
