G04 DipTrace 3.2.0.1*
G04 Bottom.gbr*
%MOMM*%
G04 #@! TF.FileFunction,Copper,L2,Bot*
G04 #@! TF.Part,Single*
G04 #@! TA.AperFunction,Conductor*
%ADD13C,0.33*%
G04 #@! TA.AperFunction,ComponentPad*
%ADD14C,1.524*%
%ADD15R,1.524X1.524*%
%ADD16C,1.5*%
%ADD17C,1.27*%
%ADD18C,1.27*%
G04 #@! TA.AperFunction,ViaPad*
%ADD19C,1.016*%
%FSLAX35Y35*%
G04*
G71*
G90*
G75*
G01*
G04 Bottom*
%LPD*%
X1282250Y3743627D2*
D13*
X1681139Y3344737D1*
Y2789779D1*
X2584000Y1664000D2*
Y2076750D1*
X2457000Y2203750D1*
X1488623Y3743627D2*
X1282250Y3950000D1*
Y4251627D1*
X2901500Y3203877D2*
X3026001Y3328377D1*
Y3881509D1*
X2959999Y3947511D1*
X2570629D1*
X2439557D1*
X2298653Y3806607D1*
X2570629Y3947511D2*
X2488750Y4029390D1*
Y4251627D1*
X2584000Y2378377D2*
X2884997D1*
X2951000Y2444379D1*
Y2922621D1*
X2901500Y2972120D1*
Y3203877D1*
X2457000Y2203750D2*
Y2302178D1*
X2533199Y2378377D1*
X2584000D1*
X1695000Y2203750D2*
Y2505377D1*
X1822000Y2632377D1*
Y3918250D1*
X1488623Y4251627D1*
X2901500Y3823000D2*
X2725011Y3646511D1*
Y2937858D1*
X2838000Y2824869D1*
Y2553000D1*
X2330000Y2378377D2*
X2181352Y2229729D1*
X2013701D1*
X1947700Y2295731D1*
Y4185618D1*
X2013708Y4251627D1*
X2282377D1*
X2076000Y1824000D2*
X1947700D1*
Y1601699D1*
X1881700Y1535700D1*
X1191699D1*
X1125700Y1601699D1*
Y4310131D1*
X1191699Y4376131D1*
X2570623D1*
X2695127Y4251627D1*
X2076000Y4047810D2*
Y2632377D1*
X2901500Y4047810D2*
Y4251627D1*
X2604930Y3847209D2*
Y3666752D1*
X2538411Y3600233D1*
X2298653D1*
X2201700Y2129430D2*
X2330000Y2001129D1*
Y1664000D1*
X2201700Y2491519D2*
Y2925699D1*
X2298653Y3022653D1*
Y3393857D1*
X1504497Y3219750D2*
Y2821583D1*
X1568000Y2758080D1*
Y2632377D1*
X1298123Y3219750D2*
Y2730436D1*
X1427000Y2601560D1*
Y2519377D1*
X1568000Y2378377D1*
X2838000Y1791000D2*
Y1601699D1*
X2772001Y1535700D1*
X2201700D1*
X2076000Y1410000D1*
D19*
X1681139Y2789779D3*
X2076000Y1824000D3*
Y4047810D3*
X2901500D3*
X2604930Y3847209D3*
X2201700Y2129430D3*
Y2491519D3*
D14*
X1568000Y2378377D3*
Y2632377D3*
X1822000D3*
Y2378377D3*
X2076000Y2632377D3*
Y2378377D3*
X2330000Y2632377D3*
Y2378377D3*
X2584000D3*
D15*
Y2632377D3*
D14*
X1568000Y1410000D3*
Y1664000D3*
X1822000D3*
Y1410000D3*
X2076000Y1664000D3*
Y1410000D3*
X2330000Y1664000D3*
Y1410000D3*
X2584000D3*
D15*
Y1664000D3*
D16*
X1282250Y4251627D3*
X1488623D3*
X1695000D3*
X1282250Y3743627D3*
X1488623D3*
X1695000D3*
X2901500Y3203877D3*
Y3410250D3*
Y3616627D3*
Y3823000D3*
X2282377Y4251627D3*
X2488750D3*
X2695127D3*
X2901500D3*
X2298653Y3806607D3*
Y3600233D3*
Y3393857D3*
X1298123Y3219750D3*
X1504497D3*
D17*
X1695000Y1838623D3*
D18*
X2457000D3*
D17*
Y2203750D3*
D18*
X1695000D3*
D17*
Y2029127D3*
D18*
X2457000D3*
D17*
X1314000Y2553000D3*
D18*
Y1791000D3*
D17*
X2838000Y2553000D3*
D18*
Y1791000D3*
M02*
