M48
METRIC,0000.00
T01C0.486
T02C0.559
T03C0.9
T04C0.965
%
T01
X+001681Y+002790
X+002202Y+002492
X+002202Y+002129
X+002076Y+001824
X+002605Y+003847
X+002901Y+004048
X+002076Y+004048
T02
X+001695Y+001839
X+001695Y+002029
X+001695Y+002204
X+001314Y+002553
X+001314Y+001791
X+002457Y+001839
X+002457Y+002029
X+002457Y+002204
X+002838Y+002553
X+002838Y+001791
T03
X+001282Y+004252
X+001489Y+004252
X+001695Y+004252
X+001695Y+003744
X+001489Y+003744
X+001282Y+003744
X+001298Y+003220
X+001504Y+003220
X+002299Y+003394
X+002299Y+003600
X+002299Y+003807
X+002282Y+004252
X+002489Y+004252
X+002695Y+004252
X+002901Y+004252
X+002901Y+003823
X+002901Y+003617
X+002901Y+003410
X+002901Y+003204
T04
X+001568Y+002378
X+001568Y+002632
X+001822Y+002632
X+001822Y+002378
X+002076Y+002378
X+002076Y+002632
X+002330Y+002632
X+002330Y+002378
X+002584Y+002378
X+002584Y+002632
X+002584Y+001664
X+002584Y+001410
X+002330Y+001410
X+002076Y+001410
X+002076Y+001664
X+002330Y+001664
X+001822Y+001664
X+001822Y+001410
X+001568Y+001410
X+001568Y+001664
T00
M30
