G04 DipTrace 3.2.0.1*
G04 Top.gbr*
%MOMM*%
G04 #@! TF.FileFunction,Copper,L1,Top*
G04 #@! TF.Part,Single*
G04 #@! TA.AperFunction,Conductor*
%ADD13C,0.33*%
G04 #@! TA.AperFunction,ComponentPad*
%ADD14C,1.524*%
%ADD15R,1.524X1.524*%
%ADD16C,1.5*%
%ADD17C,1.27*%
%ADD18C,1.27*%
G04 #@! TA.AperFunction,ViaPad*
%ADD19C,1.016*%
%FSLAX35Y35*%
G04*
G71*
G90*
G75*
G01*
G04 Top*
%LPD*%
X1282250Y3743627D2*
D13*
Y3931631D1*
X1348249Y3997630D1*
X1441003D1*
X1695000Y4251627D1*
X2584000Y2632377D2*
X2709700Y2506677D1*
Y2091323D1*
X2457000Y1838623D1*
X1681139Y2789779D2*
X1715439Y2824079D1*
X2392298D1*
X2584000Y2632377D1*
X1695000Y3743627D2*
Y3088079D1*
X1629001Y3022080D1*
X1239629D1*
X1173629Y2956080D1*
Y2139993D1*
X1475000Y1838623D1*
X1695000D1*
X1947700Y2091323D1*
Y2692080D1*
X2013699Y2758080D1*
X2204297D1*
X2330000Y2632377D1*
X1488623Y3743627D2*
X1676627Y3931631D1*
X2173629D1*
X2298653Y3806607D1*
X2901500Y3410250D2*
X2381331Y2890081D1*
X1493001D1*
X1427000Y2824079D1*
Y2297127D1*
X1695000Y2029127D1*
X2901500Y3616627D2*
X2240954Y2956080D1*
X1379999D1*
X1314000Y2890081D1*
Y2553000D1*
X2076000Y1824000D2*
Y2378377D1*
X2901500Y4047810D2*
X2076000D1*
X2604930Y3847209D2*
X2705232Y3947511D1*
X2959999D1*
X3026001Y3881509D1*
Y1476002D1*
X2959999Y1410000D1*
X2584000D1*
X2201700Y2491519D2*
Y2129430D1*
X2457000Y2029127D2*
X2201700Y1773826D1*
Y1538300D1*
X2330000Y1410000D1*
X1314000Y1791000D2*
Y1601699D1*
X1379999Y1535700D1*
X1947700D1*
X2076000Y1664000D1*
D19*
X1681139Y2789779D3*
X2076000Y1824000D3*
Y4047810D3*
X2901500D3*
X2604930Y3847209D3*
X2201700Y2129430D3*
Y2491519D3*
D14*
X1568000Y2378377D3*
Y2632377D3*
X1822000D3*
Y2378377D3*
X2076000Y2632377D3*
Y2378377D3*
X2330000Y2632377D3*
Y2378377D3*
X2584000D3*
D15*
Y2632377D3*
D14*
X1568000Y1410000D3*
Y1664000D3*
X1822000D3*
Y1410000D3*
X2076000Y1664000D3*
Y1410000D3*
X2330000Y1664000D3*
Y1410000D3*
X2584000D3*
D15*
Y1664000D3*
D16*
X1282250Y4251627D3*
X1488623D3*
X1695000D3*
X1282250Y3743627D3*
X1488623D3*
X1695000D3*
X2901500Y3203877D3*
Y3410250D3*
Y3616627D3*
Y3823000D3*
X2282377Y4251627D3*
X2488750D3*
X2695127D3*
X2901500D3*
X2298653Y3806607D3*
Y3600233D3*
Y3393857D3*
X1298123Y3219750D3*
X1504497D3*
D17*
X1695000Y1838623D3*
D18*
X2457000D3*
D17*
Y2203750D3*
D18*
X1695000D3*
D17*
Y2029127D3*
D18*
X2457000D3*
D17*
X1314000Y2553000D3*
D18*
Y1791000D3*
D17*
X2838000Y2553000D3*
D18*
Y1791000D3*
M02*
