G04 DipTrace 3.2.0.1*
G04 TopMask.gbr*
%MOMM*%
G04 #@! TF.FileFunction,Soldermask,Top*
G04 #@! TF.Part,Single*
%ADD28C,1.47*%
%ADD30C,1.47*%
%ADD32C,1.7*%
%ADD34R,1.724X1.724*%
%ADD36C,1.724*%
%FSLAX35Y35*%
G04*
G71*
G90*
G75*
G01*
G04 TopMask*
%LPD*%
D36*
X1568000Y2378377D3*
Y2632377D3*
X1822000D3*
Y2378377D3*
X2076000Y2632377D3*
Y2378377D3*
X2330000Y2632377D3*
Y2378377D3*
X2584000D3*
D34*
Y2632377D3*
D36*
X1568000Y1410000D3*
Y1664000D3*
X1822000D3*
Y1410000D3*
X2076000Y1664000D3*
Y1410000D3*
X2330000Y1664000D3*
Y1410000D3*
X2584000D3*
D34*
Y1664000D3*
D32*
X1282250Y4251627D3*
X1488623D3*
X1695000D3*
X1282250Y3743627D3*
X1488623D3*
X1695000D3*
X2901500Y3203877D3*
Y3410250D3*
Y3616627D3*
Y3823000D3*
X2282377Y4251627D3*
X2488750D3*
X2695127D3*
X2901500D3*
X2298653Y3806607D3*
Y3600233D3*
Y3393857D3*
X1298123Y3219750D3*
X1504497D3*
D30*
X1695000Y1838623D3*
D28*
X2457000D3*
D30*
Y2203750D3*
D28*
X1695000D3*
D30*
Y2029127D3*
D28*
X2457000D3*
D30*
X1314000Y2553000D3*
D28*
Y1791000D3*
D30*
X2838000Y2553000D3*
D28*
Y1791000D3*
M02*
