G04 DipTrace 3.2.0.1*
G04 TopSilk.gbr*
%MOMM*%
G04 #@! TF.FileFunction,Legend,Top*
G04 #@! TF.Part,Single*
%ADD10C,0.25*%
%ADD38C,0.19608*%
%ADD40C,0.11765*%
%FSLAX35Y35*%
G04*
G71*
G90*
G75*
G01*
G04 TopSilk*
%LPD*%
X3029008Y2632504D2*
D10*
X3092000D1*
X3029008Y2378250D2*
Y2632504D1*
Y2378250D2*
X3092000D1*
X1060000Y2632504D2*
X1122992D1*
Y2378250D2*
Y2632504D1*
X1060000Y2378250D2*
X1122992D1*
X3092000Y2060877D2*
Y2949877D1*
X1060000Y2060877D2*
Y2949877D1*
Y2060877D2*
X3092000D1*
X2279200Y2873423D2*
Y2949877D1*
X1872800Y2873423D2*
X2279200D1*
X1872800D2*
Y2949877D1*
X2279200D2*
X3092000D1*
X1060000D2*
X1872800D1*
X3029008Y1664127D2*
X3092000D1*
X3029008Y1409873D2*
Y1664127D1*
Y1409873D2*
X3092000D1*
X1060000Y1664127D2*
X1122992D1*
Y1409873D2*
Y1664127D1*
X1060000Y1409873D2*
X1122992D1*
X3092000Y1092500D2*
Y1981500D1*
X1060000Y1092500D2*
Y1981500D1*
Y1092500D2*
X3092000D1*
X2279200Y1905046D2*
Y1981500D1*
X1872800Y1905046D2*
X2279200D1*
X1872800D2*
Y1981500D1*
X2279200D2*
X3092000D1*
X1060000D2*
X1872800D1*
X1075873Y4521500D2*
X1885500D1*
Y4061127D1*
X1075873D1*
Y4521500D1*
Y4013500D2*
X1885500D1*
Y3553127D1*
X1075873D1*
Y4013500D1*
X2631627Y3013373D2*
X3092000D1*
Y4013500D1*
X2631627D1*
Y3013373D1*
X3076117Y3394422D2*
Y3632452D1*
X2091873Y4521500D2*
X3092000D1*
Y4061127D1*
X2091873D1*
Y4521500D1*
X2472922Y4077010D2*
X2710952D1*
X2568527Y4012983D2*
X2108153D1*
Y3203357D1*
X2568527D1*
Y4012983D1*
X1091748Y3489623D2*
X1694998D1*
Y3029250D1*
X1091748D1*
Y3489623D1*
X1282255Y3045133D2*
X1520357D1*
X1266167Y4485237D2*
D38*
Y4357627D1*
X1223630Y4485237D2*
X1308703D1*
X1347919Y4406200D2*
X1420779D1*
Y4418414D1*
X1414742Y4430627D1*
X1408705Y4436664D1*
X1396492Y4442700D1*
X1378242D1*
X1366169Y4436664D1*
X1353955Y4424450D1*
X1347919Y4406200D1*
Y4394127D1*
X1353955Y4375877D1*
X1366169Y4363804D1*
X1378242Y4357627D1*
X1396492D1*
X1408705Y4363804D1*
X1420779Y4375877D1*
X1459994Y4442700D2*
Y4357627D1*
Y4418414D2*
X1478244Y4436664D1*
X1490458Y4442700D1*
X1508567D1*
X1520781Y4436664D1*
X1526817Y4418414D1*
Y4357627D1*
Y4418414D2*
X1545067Y4436664D1*
X1557281Y4442700D1*
X1575390D1*
X1587604Y4436664D1*
X1593781Y4418414D1*
Y4357627D1*
X1632996Y4442700D2*
Y4315090D1*
Y4424450D2*
X1645210Y4436523D1*
X1657283Y4442700D1*
X1675533D1*
X1687746Y4436523D1*
X1699820Y4424450D1*
X1705996Y4406200D1*
Y4393987D1*
X1699820Y4375877D1*
X1687746Y4363664D1*
X1675533Y4357627D1*
X1657283D1*
X1645210Y4363664D1*
X1632996Y4375877D1*
X1342897Y3977260D2*
Y3849650D1*
X1427970Y3977260D2*
Y3849650D1*
X1342897Y3916473D2*
X1427970D1*
X1540045Y3934723D2*
Y3849650D1*
Y3916473D2*
X1527972Y3928687D1*
X1515759Y3934723D1*
X1497649D1*
X1485436Y3928687D1*
X1473362Y3916473D1*
X1467186Y3898223D1*
Y3886150D1*
X1473362Y3867900D1*
X1485436Y3855827D1*
X1497649Y3849650D1*
X1515759D1*
X1527972Y3855827D1*
X1540045Y3867900D1*
X1579261Y3977260D2*
Y3849650D1*
X1618477Y3977260D2*
Y3849650D1*
X2688310Y3993133D2*
Y3865524D1*
X2761170D1*
X2879281Y3993133D2*
X2800385D1*
Y3865524D1*
X2879281D1*
X2800385Y3932347D2*
X2848958D1*
X2918497Y3993133D2*
Y3865524D1*
X2961034D1*
X2979284Y3871701D1*
X2991497Y3883774D1*
X2997534Y3895987D1*
X3003570Y3914097D1*
Y3944560D1*
X2997534Y3962810D1*
X2991497Y3974883D1*
X2979284Y3987097D1*
X2961034Y3993133D1*
X2918497D1*
X2405574Y4485237D2*
X2454147Y4357627D1*
X2502720Y4485237D1*
X2541936D2*
X2547972Y4479200D1*
X2554149Y4485237D1*
X2547972Y4491414D1*
X2541936Y4485237D1*
X2547972Y4442700D2*
Y4357627D1*
X2593365Y4485237D2*
Y4357627D1*
Y4424450D2*
X2605578Y4436664D1*
X2617651Y4442700D1*
X2635901D1*
X2647974Y4436664D1*
X2660188Y4424450D1*
X2666224Y4406200D1*
Y4394127D1*
X2660188Y4375877D1*
X2647974Y4363804D1*
X2635901Y4357627D1*
X2617651D1*
X2605578Y4363804D1*
X2593365Y4375877D1*
X2705440Y4406200D2*
X2778300D1*
Y4418414D1*
X2772263Y4430627D1*
X2766227Y4436664D1*
X2754013Y4442700D1*
X2735763D1*
X2723690Y4436664D1*
X2711477Y4424450D1*
X2705440Y4406200D1*
Y4394127D1*
X2711477Y4375877D1*
X2723690Y4363804D1*
X2735763Y4357627D1*
X2754013D1*
X2766227Y4363804D1*
X2778300Y4375877D1*
X2221748Y3990223D2*
X2209675Y4002437D1*
X2191425Y4008473D1*
X2167139D1*
X2148889Y4002437D1*
X2136675Y3990223D1*
Y3978150D1*
X2142852Y3965937D1*
X2148889Y3959900D1*
X2160962Y3953864D1*
X2197462Y3941650D1*
X2209675Y3935614D1*
X2215712Y3929437D1*
X2221748Y3917364D1*
Y3899114D1*
X2209675Y3887041D1*
X2191425Y3880864D1*
X2167139D1*
X2148889Y3887041D1*
X2136675Y3899114D1*
X2260964Y3965937D2*
Y3880864D1*
Y3929437D2*
X2267141Y3947687D1*
X2279214Y3959900D1*
X2291427Y3965937D1*
X2309677D1*
X2348893D2*
X2385393Y3880864D1*
X2421753Y3965937D1*
X2491291D2*
X2479218Y3959900D1*
X2467005Y3947687D1*
X2460968Y3929437D1*
Y3917364D1*
X2467005Y3899114D1*
X2479218Y3887041D1*
X2491291Y3880864D1*
X2509541D1*
X2521755Y3887041D1*
X2533828Y3899114D1*
X2540005Y3917364D1*
Y3929437D1*
X2533828Y3947687D1*
X2521755Y3959900D1*
X2509541Y3965937D1*
X2491291D1*
X1385837Y3325750D2*
Y3453360D1*
X1337264Y3325750D1*
X1288691Y3453360D1*
Y3325750D1*
X1443303Y3453360D2*
Y3350037D1*
X1449340Y3331927D1*
X1461553Y3325750D1*
X1473626D1*
X1425053Y3410823D2*
X1467590D1*
X1512842D2*
Y3325750D1*
Y3374323D2*
X1519019Y3392573D1*
X1531092Y3404787D1*
X1543305Y3410823D1*
X1561555D1*
X1975981Y4447807D2*
D40*
X1917693Y4414957D1*
X1975981Y4382191D1*
X2025032Y4453324D2*
Y4376758D1*
X1999510Y4453324D2*
X2050554D1*
X1917692Y4294592D2*
X1946836Y4218026D1*
X1975980Y4294592D1*
X1999509Y4289075D2*
X2057797Y4256225D1*
X1999509Y4223459D1*
X1794130Y3489975D2*
X1786886Y3497303D1*
X1775936Y3500925D1*
X1761364D1*
X1750414Y3497303D1*
X1743086Y3489975D1*
Y3482731D1*
X1746792Y3475403D1*
X1750414Y3471781D1*
X1757658Y3468159D1*
X1779558Y3460831D1*
X1786886Y3457209D1*
X1790508Y3453503D1*
X1794130Y3446259D1*
Y3435309D1*
X1786886Y3428065D1*
X1775936Y3424359D1*
X1761364D1*
X1750414Y3428065D1*
X1743086Y3435309D1*
X1817659Y3475403D2*
Y3424359D1*
Y3453503D2*
X1821365Y3464453D1*
X1828609Y3471781D1*
X1835937Y3475403D1*
X1846887D1*
X1870416D2*
X1892316Y3424359D1*
X1914132Y3475403D1*
X1955855D2*
X1948612Y3471781D1*
X1941284Y3464453D1*
X1937662Y3453503D1*
Y3446259D1*
X1941284Y3435309D1*
X1948612Y3428065D1*
X1955855Y3424359D1*
X1966805D1*
X1974134Y3428065D1*
X1981377Y3435309D1*
X1985084Y3446259D1*
Y3453503D1*
X1981377Y3464453D1*
X1974134Y3471781D1*
X1966805Y3475403D1*
X1955855D1*
X2008613Y3495408D2*
X2066901Y3462558D1*
X2008613Y3429792D1*
X2330399Y3151712D2*
Y3075146D1*
X2374115D1*
X2444982Y3151712D2*
X2397644D1*
Y3075146D1*
X2444982D1*
X2397644Y3115240D2*
X2426788D1*
X2468511Y3151712D2*
Y3075146D1*
X2494033D1*
X2504983Y3078852D1*
X2512311Y3086096D1*
X2515933Y3093424D1*
X2519555Y3104290D1*
Y3122568D1*
X2515933Y3133518D1*
X2512311Y3140762D1*
X2504983Y3148090D1*
X2494033Y3151712D1*
X2468511D1*
X2543085Y3146195D2*
X2601372Y3113345D1*
X2543085Y3080579D1*
X1817247Y3368421D2*
X1758959Y3335571D1*
X1817247Y3302805D1*
X1899064Y3297373D2*
Y3373938D1*
X1869920Y3297373D1*
X1840776Y3373938D1*
Y3297373D1*
X1933543Y3373938D2*
Y3311944D1*
X1937165Y3301079D1*
X1944493Y3297373D1*
X1951737D1*
X1922593Y3348416D2*
X1948115D1*
X1975266D2*
Y3297373D1*
Y3326516D2*
X1978973Y3337466D1*
X1986216Y3344794D1*
X1993545Y3348416D1*
X2004495D1*
X1991853Y3781128D2*
X1933566Y3748278D1*
X1991853Y3715512D1*
X2015383Y3786645D2*
Y3710079D1*
X2066427Y3786645D2*
Y3710079D1*
X2015383Y3750173D2*
X2066427D1*
X2017658Y3231078D2*
Y3172791D1*
X2014036Y3161841D1*
X2010330Y3158219D1*
X2003086Y3154513D1*
X1995758D1*
X1988514Y3158219D1*
X1984892Y3161841D1*
X1981186Y3172791D1*
Y3180034D1*
X2041187Y3216422D2*
X2048515Y3220128D1*
X2059465Y3230994D1*
Y3154513D1*
X2001784Y3104092D2*
Y3045804D1*
X1998162Y3034854D1*
X1994456Y3031232D1*
X1987212Y3027526D1*
X1979884D1*
X1972640Y3031232D1*
X1969019Y3034854D1*
X1965312Y3045804D1*
Y3053048D1*
X2029020Y3085814D2*
Y3089435D1*
X2032642Y3096764D1*
X2036264Y3100385D1*
X2043592Y3104007D1*
X2058164D1*
X2065408Y3100385D1*
X2069029Y3096764D1*
X2072736Y3089435D1*
Y3082192D1*
X2069029Y3074864D1*
X2061786Y3063998D1*
X2025314Y3027526D1*
X2076358D1*
M02*
