G04 DipTrace 3.2.0.1*
G04 BottomMask.gbr*
%MOMM*%
G04 #@! TF.FileFunction,Soldermask,Bot*
G04 #@! TF.Part,Single*
%ADD25R,1.7X1.7*%
%ADD26C,1.7*%
%ADD39C,1.9*%
%ADD40R,1.9X1.9*%
%ADD41C,1.47*%
%ADD43C,1.47*%
%ADD45R,1.82X1.82*%
%ADD47C,1.82*%
%ADD49O,4.7X2.2*%
%ADD51O,2.2X5.2*%
%ADD53O,2.2X4.7*%
%ADD56C,1.7*%
%ADD58C,1.8*%
%ADD60R,1.8X1.8*%
%ADD62C,0.19608*%
%FSLAX35Y35*%
G04*
G71*
G90*
G75*
G01*
G04 BotMask*
%LPD*%
D60*
X2951000Y2397000D3*
D58*
Y2143000D3*
D60*
Y2905000D3*
D58*
Y3159000D3*
D56*
X1935000Y5953000D3*
Y5699000D3*
Y5445000D3*
Y5191000D3*
Y4937000D3*
D25*
X2189000D3*
D56*
Y5191000D3*
Y5445000D3*
Y5699000D3*
Y5953000D3*
X1935000Y3667000D3*
Y3413000D3*
Y3159000D3*
Y2905000D3*
Y2651000D3*
D25*
X2189000D3*
D56*
Y2905000D3*
Y3159000D3*
Y3413000D3*
Y3667000D3*
D53*
X1808000Y7350000D3*
D51*
X2408000D3*
D49*
X2108000Y7820000D3*
D47*
X3713000Y6842000D3*
Y6588000D3*
Y6334000D3*
Y6080000D3*
Y5826000D3*
Y5572000D3*
Y5318000D3*
Y5064000D3*
Y4810000D3*
Y4556000D3*
Y4302000D3*
Y4048000D3*
Y3794000D3*
Y3540000D3*
Y3286000D3*
Y3032000D3*
Y2778000D3*
Y2524000D3*
Y2270000D3*
Y2016000D3*
X3459000D3*
Y2270000D3*
Y2524000D3*
Y2778000D3*
Y3032000D3*
Y3286000D3*
Y3540000D3*
Y3794000D3*
Y4048000D3*
Y4302000D3*
Y4556000D3*
Y4810000D3*
Y5064000D3*
Y5318000D3*
Y5572000D3*
Y5826000D3*
Y6080000D3*
Y6334000D3*
Y6588000D3*
D45*
Y6842000D3*
D43*
X2919250Y7826250D3*
D41*
Y7064250D3*
D40*
X3268500Y7826250D3*
D39*
X3718500D3*
Y7176250D3*
X3268500D3*
D25*
X3205000Y6461000D3*
D26*
Y6207000D3*
Y5953000D3*
Y5699000D3*
Y5445000D3*
Y5191000D3*
Y4937000D3*
Y4683000D3*
X2443000D3*
Y4937000D3*
Y5191000D3*
Y5445000D3*
Y5699000D3*
Y5953000D3*
Y6207000D3*
Y6461000D3*
D56*
X2062000Y1889000D3*
X1808000D3*
X1554000D3*
X3800806Y1611532D2*
D62*
X3770343Y1483922D1*
X3740020Y1611532D1*
X3709697Y1483922D1*
X3679233Y1611532D1*
X3640017D2*
X3633981Y1605495D1*
X3627804Y1611532D1*
X3633981Y1617709D1*
X3640017Y1611532D1*
X3633981Y1568995D2*
Y1483922D1*
X3588588Y1568995D2*
Y1483922D1*
Y1544709D2*
X3570338Y1562959D1*
X3558125Y1568995D1*
X3540015D1*
X3527802Y1562959D1*
X3521765Y1544709D1*
Y1483922D1*
X3409690Y1611532D2*
Y1483922D1*
Y1550745D2*
X3421763Y1562959D1*
X3433976Y1568995D1*
X3452226D1*
X3464299Y1562959D1*
X3476513Y1550745D1*
X3482549Y1532495D1*
Y1520422D1*
X3476513Y1502172D1*
X3464299Y1490099D1*
X3452226Y1483922D1*
X3433976D1*
X3421763Y1490099D1*
X3409690Y1502172D1*
X3321901Y1611532D2*
X3333974D1*
X3346188Y1605495D1*
X3352224Y1587245D1*
Y1483922D1*
X3370474Y1568995D2*
X3327938D1*
X3209826D2*
Y1483922D1*
Y1550745D2*
X3221899Y1562959D1*
X3234112Y1568995D1*
X3252222D1*
X3264435Y1562959D1*
X3276508Y1550745D1*
X3282685Y1532495D1*
Y1520422D1*
X3276508Y1502172D1*
X3264435Y1490099D1*
X3252222Y1483922D1*
X3234112D1*
X3221899Y1490099D1*
X3209826Y1502172D1*
X3170610Y1568995D2*
Y1483922D1*
Y1532495D2*
X3164433Y1550745D1*
X3152360Y1562959D1*
X3140147Y1568995D1*
X3121897D1*
X3082681D2*
Y1483922D1*
Y1544709D2*
X3064431Y1562959D1*
X3052217Y1568995D1*
X3034108D1*
X3021894Y1562959D1*
X3015858Y1544709D1*
Y1483922D1*
Y1544709D2*
X2997608Y1562959D1*
X2985394Y1568995D1*
X2967285D1*
X2955071Y1562959D1*
X2948894Y1544709D1*
Y1483922D1*
X2909679Y1547657D2*
X2839486D1*
X2757734Y1611532D2*
Y1483922D1*
X2800271Y1611532D2*
X2715198D1*
X2675982Y1568995D2*
Y1508209D1*
X2669945Y1490099D1*
X2657732Y1483922D1*
X2639482D1*
X2627409Y1490099D1*
X2609159Y1508209D1*
Y1568995D2*
Y1483922D1*
X2569943Y1568995D2*
Y1483922D1*
Y1532495D2*
X2563766Y1550745D1*
X2551693Y1562959D1*
X2539480Y1568995D1*
X2521230D1*
X2482014Y1611532D2*
Y1483922D1*
Y1550745D2*
X2469801Y1562959D1*
X2457728Y1568995D1*
X2439478D1*
X2427404Y1562959D1*
X2415191Y1550745D1*
X2409154Y1532495D1*
Y1520422D1*
X2415191Y1502172D1*
X2427404Y1490099D1*
X2439478Y1483922D1*
X2457728D1*
X2469801Y1490099D1*
X2482014Y1502172D1*
X2369939Y1611532D2*
X2363902Y1605495D1*
X2357725Y1611532D1*
X2363902Y1617709D1*
X2369939Y1611532D1*
X2363902Y1568995D2*
Y1483922D1*
X2318510Y1568995D2*
Y1483922D1*
Y1544709D2*
X2300260Y1562959D1*
X2288046Y1568995D1*
X2269937D1*
X2257723Y1562959D1*
X2251687Y1544709D1*
Y1483922D1*
X2212471Y1532495D2*
X2139611D1*
Y1544709D1*
X2145648Y1556922D1*
X2151684Y1562959D1*
X2163898Y1568995D1*
X2182148D1*
X2194221Y1562959D1*
X2206434Y1550745D1*
X2212471Y1532495D1*
Y1520422D1*
X2206434Y1502172D1*
X2194221Y1490099D1*
X2182148Y1483922D1*
X2163898D1*
X2151684Y1490099D1*
X2139611Y1502172D1*
X1976949Y1611532D2*
Y1483922D1*
X1901233Y1611532D2*
X1913447Y1605495D1*
X1925520Y1593282D1*
X1931697Y1581209D1*
X1937733Y1562959D1*
Y1532495D1*
X1931697Y1514385D1*
X1925520Y1502172D1*
X1913447Y1490099D1*
X1901233Y1483922D1*
X1876947D1*
X1864874Y1490099D1*
X1852660Y1502172D1*
X1846624Y1514385D1*
X1840587Y1532495D1*
Y1562959D1*
X1846624Y1581209D1*
X1852660Y1593282D1*
X1864874Y1605495D1*
X1876947Y1611532D1*
X1901233D1*
X3703520Y1102922D2*
X3752234Y1230532D1*
X3800807Y1102922D1*
X3782557Y1145459D2*
X3721770D1*
X3664305Y1230532D2*
X3633841Y1102922D1*
X3603518Y1230532D1*
X3573195Y1102922D1*
X3542732Y1230532D1*
X3418443Y1212282D2*
X3430516Y1224495D1*
X3448766Y1230532D1*
X3473052D1*
X3491302Y1224495D1*
X3503516Y1212282D1*
Y1200209D1*
X3497339Y1187995D1*
X3491302Y1181959D1*
X3479229Y1175922D1*
X3442729Y1163709D1*
X3430516Y1157672D1*
X3424479Y1151495D1*
X3418443Y1139422D1*
Y1121172D1*
X3430516Y1109099D1*
X3448766Y1102922D1*
X3473052D1*
X3491302Y1109099D1*
X3503516Y1121172D1*
X3255781Y1230532D2*
X3207208Y1102922D1*
X3158634Y1230532D1*
X3119419Y1206105D2*
X3107205Y1212282D1*
X3088955Y1230391D1*
Y1102922D1*
X3043703Y1115135D2*
X3049740Y1108959D1*
X3043703Y1102922D1*
X3037526Y1108959D1*
X3043703Y1115135D1*
X2961810Y1230391D2*
X2980060Y1224355D1*
X2992274Y1206105D1*
X2998310Y1175782D1*
Y1157532D1*
X2992274Y1127209D1*
X2980060Y1108959D1*
X2961810Y1102922D1*
X2949737D1*
X2931487Y1108959D1*
X2919414Y1127209D1*
X2913237Y1157532D1*
Y1175782D1*
X2919414Y1206105D1*
X2931487Y1224355D1*
X2949737Y1230391D1*
X2961810D1*
X2919414Y1206105D2*
X2992274Y1127209D1*
X2750575Y1230532D2*
Y1102922D1*
X2689789Y1187995D2*
X2750575Y1127209D1*
X2726289Y1151495D2*
X2683752Y1102922D1*
X2644537Y1151495D2*
X2571677D1*
Y1163709D1*
X2577713Y1175922D1*
X2583750Y1181959D1*
X2595963Y1187995D1*
X2614213D1*
X2626287Y1181959D1*
X2638500Y1169745D1*
X2644537Y1151495D1*
Y1139422D1*
X2638500Y1121172D1*
X2626287Y1109099D1*
X2614213Y1102922D1*
X2595963D1*
X2583750Y1109099D1*
X2571677Y1121172D1*
X2532461Y1187995D2*
X2495961Y1102922D1*
X2459602Y1187995D1*
X2420386Y1230532D2*
X2414349Y1224495D1*
X2408172Y1230532D1*
X2414349Y1236709D1*
X2420386Y1230532D1*
X2414349Y1187995D2*
Y1102922D1*
X2368957Y1187995D2*
Y1102922D1*
Y1163709D2*
X2350707Y1181959D1*
X2338493Y1187995D1*
X2320384D1*
X2308170Y1181959D1*
X2302134Y1163709D1*
Y1102922D1*
X2232595Y1187995D2*
X2244668Y1181959D1*
X2256881Y1169745D1*
X2262918Y1151495D1*
Y1139422D1*
X2256881Y1121172D1*
X2244668Y1109099D1*
X2232595Y1102922D1*
X2214345D1*
X2202131Y1109099D1*
X2190058Y1121172D1*
X2183881Y1139422D1*
Y1151495D1*
X2190058Y1169745D1*
X2202131Y1181959D1*
X2214345Y1187995D1*
X2232595D1*
X2144666Y1230532D2*
Y1102922D1*
X2038627Y1200068D2*
X2056877D1*
X2068950Y1194032D1*
X2075127Y1187995D1*
X2081164Y1175782D1*
Y1151495D1*
X2075127Y1145459D1*
X2062914D1*
X2038627Y1151495D1*
X2032590Y1139422D1*
X2026554D1*
X2014340Y1151495D1*
X2008304Y1181818D1*
X2014340Y1200068D1*
X2020377Y1212282D1*
X2032590Y1224355D1*
X2044664Y1230391D1*
X2068950D1*
X2081164Y1224355D1*
X2093237Y1212282D1*
X2099414Y1200068D1*
X2105450Y1181818D1*
Y1151495D1*
X2099414Y1133245D1*
X2093237Y1121172D1*
X2081164Y1108959D1*
X2068950Y1102922D1*
X2044664D1*
X2032590Y1108959D1*
X2020377Y1121172D1*
X2038627Y1206105D2*
Y1151495D1*
X3800808Y1360245D2*
X3746198D1*
X3727948Y1366422D1*
X3721771Y1372459D1*
X3715735Y1384532D1*
Y1396745D1*
X3721771Y1408818D1*
X3727948Y1414995D1*
X3746198Y1421032D1*
X3800808D1*
Y1293422D1*
X3758271Y1360245D2*
X3715735Y1293422D1*
X3676519Y1354209D2*
X3621769D1*
X3603659Y1360245D1*
X3597482Y1366422D1*
X3591446Y1378495D1*
Y1396745D1*
X3597482Y1408818D1*
X3603659Y1414995D1*
X3621769Y1421032D1*
X3676519D1*
Y1293422D1*
X3552230Y1421032D2*
Y1293422D1*
X3389568Y1421032D2*
X3304495D1*
X3389568Y1293422D1*
X3304495D1*
X3265279Y1341995D2*
X3192420D1*
Y1354209D1*
X3198456Y1366422D1*
X3204493Y1372459D1*
X3216706Y1378495D1*
X3234956D1*
X3247029Y1372459D1*
X3259243Y1360245D1*
X3265279Y1341995D1*
Y1329922D1*
X3259243Y1311672D1*
X3247029Y1299599D1*
X3234956Y1293422D1*
X3216706D1*
X3204493Y1299599D1*
X3192420Y1311672D1*
X3153204Y1378495D2*
Y1293422D1*
Y1341995D2*
X3147027Y1360245D1*
X3134954Y1372459D1*
X3122740Y1378495D1*
X3104490D1*
X3034952D2*
X3047025Y1372459D1*
X3059238Y1360245D1*
X3065275Y1341995D1*
Y1329922D1*
X3059238Y1311672D1*
X3047025Y1299599D1*
X3034952Y1293422D1*
X3016702D1*
X3004488Y1299599D1*
X2992415Y1311672D1*
X2986238Y1329922D1*
Y1341995D1*
X2992415Y1360245D1*
X3004488Y1372459D1*
X3016702Y1378495D1*
X3034952D1*
X2823576Y1421032D2*
X2793113Y1293422D1*
X2762789Y1421032D1*
X2732466Y1293422D1*
X2702003Y1421032D1*
X2539341D2*
Y1293422D1*
X2466481D1*
X2354406Y1378495D2*
Y1293422D1*
Y1360245D2*
X2366479Y1372459D1*
X2378692Y1378495D1*
X2396802D1*
X2409016Y1372459D1*
X2421089Y1360245D1*
X2427266Y1341995D1*
Y1329922D1*
X2421089Y1311672D1*
X2409016Y1299599D1*
X2396802Y1293422D1*
X2378692D1*
X2366479Y1299599D1*
X2354406Y1311672D1*
X2309013Y1378495D2*
X2272654Y1293422D1*
X2284727Y1269135D1*
X2296940Y1256922D1*
X2309013Y1250885D1*
X2315190D1*
X2236154Y1378495D2*
X2272654Y1293422D1*
X2166615Y1378495D2*
X2178688Y1372459D1*
X2190901Y1360245D1*
X2196938Y1341995D1*
Y1329922D1*
X2190901Y1311672D1*
X2178688Y1299599D1*
X2166615Y1293422D1*
X2148365D1*
X2136151Y1299599D1*
X2124078Y1311672D1*
X2117901Y1329922D1*
Y1341995D1*
X2124078Y1360245D1*
X2136151Y1372459D1*
X2148365Y1378495D1*
X2166615D1*
X2078686D2*
Y1317709D1*
X2072649Y1299599D1*
X2060436Y1293422D1*
X2042186D1*
X2030113Y1299599D1*
X2011863Y1317709D1*
Y1378495D2*
Y1293422D1*
X1954397Y1421032D2*
Y1317709D1*
X1948360Y1299599D1*
X1936147Y1293422D1*
X1924074D1*
X1972647Y1378495D2*
X1930110D1*
M02*
