G04 DipTrace 3.2.0.1*
G04 Bottom.gbr*
%MOMM*%
G04 #@! TF.FileFunction,Copper,L2,Bot*
G04 #@! TF.Part,Single*
G04 #@! TA.AperFunction,Conductor*
%ADD13C,0.33*%
G04 #@! TA.AperFunction,ComponentPad*
%ADD14R,1.6X1.6*%
%ADD15C,1.6*%
%ADD16C,1.5*%
%ADD17R,1.5X1.5*%
%ADD18O,2.0X4.5*%
%ADD19O,2.0X5.0*%
%ADD20O,4.5X2.0*%
%ADD21C,1.62*%
%ADD22R,1.62X1.62*%
%ADD23C,1.27*%
%ADD24C,1.27*%
%ADD25R,1.7X1.7*%
%ADD26C,1.7*%
%ADD27C,1.5*%
G04 #@! TA.AperFunction,ViaPad*
%ADD28C,1.016*%
%FSLAX35Y35*%
G04*
G71*
G90*
G75*
G01*
G04 Bottom*
%LPD*%
X2443000Y6207000D2*
D13*
Y6461000D1*
X2736400D1*
Y6881400D1*
X2919250Y7064250D1*
X2802400Y5723201D2*
Y4875999D1*
X2868399Y4810000D1*
X3459000D1*
X2736400Y6461000D2*
X2802400Y6395001D1*
Y5923800D1*
X2443000Y5445000D2*
X2567501Y5320499D1*
Y4367999D1*
X2633500Y4302000D1*
X3459000D1*
X3041681Y4402300D2*
X2633500Y4810480D1*
Y5508500D1*
X2443000Y5699000D1*
X3713000Y6842000D2*
X3582500Y6972500D1*
X3098249D1*
X3032250Y6906501D1*
Y5889500D1*
X2966250Y5823501D1*
X2379503D1*
X2313501Y5757499D1*
Y5061501D1*
X2189000Y4937000D1*
X3459000Y2270000D2*
X3212501Y2516499D1*
Y3791501D1*
X3146501Y3857500D1*
X2125500D1*
X2059501Y3923499D1*
Y5061501D1*
X2189000Y5191000D1*
X1808000Y7350000D2*
Y5064000D1*
X1935000Y4937000D1*
X2951000Y2143000D2*
X3080499Y2272499D1*
Y3029501D1*
X2951000Y3159000D1*
X1808000Y1889000D2*
X1932501Y1764499D1*
X2884998D1*
X2951000Y1830501D1*
Y2143000D1*
X2189000Y2651000D2*
Y2270000D1*
X1808000Y1889000D1*
X1935000Y4937000D2*
Y3857500D1*
X2000999Y3791501D1*
X2313498D1*
X2379500Y3725499D1*
Y2841500D1*
X2189000Y2651000D1*
X2059501Y5840709D2*
Y5574499D1*
X2189000Y5445000D1*
X3132549Y6619801D2*
X3164350Y6588000D1*
X3459000D1*
X2667800Y6334000D2*
Y5923800D1*
X1744500Y4836700D2*
Y3095500D1*
X1810499Y3029501D1*
X2064499D1*
X2189000Y2905000D1*
X1935000Y5953000D2*
X2059501Y6077501D1*
X2318499D1*
X2443000Y5953000D1*
X2951000Y2905000D2*
X2819751Y3036249D1*
Y3288502D1*
X2885750Y3354501D1*
X3080499D1*
X3146501Y3288499D1*
Y1698503D1*
X3080499Y1632501D1*
X1810499D1*
X1554000Y1889000D1*
Y7558501D1*
X1619999Y7624500D1*
X1980380D1*
X2254880Y7350000D1*
X2408000D1*
X2062000Y1889000D2*
X2443000D1*
X2951000Y2397000D1*
X3713000Y2016000D2*
X3853010Y2156010D1*
Y7041740D1*
X3718500Y7176250D1*
X3268500Y7826250D2*
X2919250D1*
D28*
X2802400Y5923800D3*
Y5723201D3*
X3041681Y4402300D3*
X2059501Y5840709D3*
X3132549Y6619801D3*
X2667800Y5923800D3*
Y6334000D3*
X1744500Y4836700D3*
D14*
X2951000Y2397000D3*
D15*
Y2143000D3*
D14*
Y2905000D3*
D15*
Y3159000D3*
D16*
X1935000Y5953000D3*
Y5699000D3*
Y5445000D3*
Y5191000D3*
Y4937000D3*
D17*
X2189000D3*
D16*
Y5191000D3*
Y5445000D3*
Y5699000D3*
Y5953000D3*
X1935000Y3667000D3*
Y3413000D3*
Y3159000D3*
Y2905000D3*
Y2651000D3*
D17*
X2189000D3*
D16*
Y2905000D3*
Y3159000D3*
Y3413000D3*
Y3667000D3*
D18*
X1808000Y7350000D3*
D19*
X2408000D3*
D20*
X2108000Y7820000D3*
D21*
X3713000Y6842000D3*
Y6588000D3*
Y6334000D3*
Y6080000D3*
Y5826000D3*
Y5572000D3*
Y5318000D3*
Y5064000D3*
Y4810000D3*
Y4556000D3*
Y4302000D3*
Y4048000D3*
Y3794000D3*
Y3540000D3*
Y3286000D3*
Y3032000D3*
Y2778000D3*
Y2524000D3*
Y2270000D3*
Y2016000D3*
X3459000D3*
Y2270000D3*
Y2524000D3*
Y2778000D3*
Y3032000D3*
Y3286000D3*
Y3540000D3*
Y3794000D3*
Y4048000D3*
Y4302000D3*
Y4556000D3*
Y4810000D3*
Y5064000D3*
Y5318000D3*
Y5572000D3*
Y5826000D3*
Y6080000D3*
Y6334000D3*
Y6588000D3*
D22*
Y6842000D3*
D23*
X2919250Y7826250D3*
D24*
Y7064250D3*
D25*
X3268500Y7826250D3*
D26*
X3718500D3*
Y7176250D3*
X3268500D3*
D17*
X3205000Y6461000D3*
D27*
Y6207000D3*
Y5953000D3*
Y5699000D3*
Y5445000D3*
Y5191000D3*
Y4937000D3*
Y4683000D3*
X2443000D3*
Y4937000D3*
Y5191000D3*
Y5445000D3*
Y5699000D3*
Y5953000D3*
Y6207000D3*
Y6461000D3*
D16*
X2062000Y1889000D3*
X1808000D3*
X1554000D3*
M02*
