M48
METRIC,0000.00
T01C0.486
T02C0.559
T03C0.9
T04C1.0
T05C1.02
%
T03
X+002951Y+002397
X+002951Y+002143
X+002951Y+002905
X+002951Y+003159
X+001935Y+005953
X+001935Y+005699
X+001935Y+005445
X+001935Y+005191
X+001935Y+004937
X+002189Y+004937
X+002189Y+005191
X+002189Y+005445
X+002189Y+005699
X+002189Y+005953
X+001935Y+003667
X+001935Y+003413
X+001935Y+003159
X+001935Y+002905
X+001935Y+002651
X+002189Y+002651
X+002189Y+002905
X+002189Y+003159
X+002189Y+003413
X+002189Y+003667
T04
X+001808Y+007225G85X+001808Y+007475
X+002408Y+007200G85X+002408Y+007500
X+002233Y+007820G85X+001983Y+007820
T05
X+003713Y+006842
X+003713Y+006588
X+003713Y+006334
X+003713Y+006080
X+003713Y+005826
X+003713Y+005572
X+003713Y+005318
X+003713Y+005064
X+003713Y+004810
X+003713Y+004556
X+003713Y+004302
X+003713Y+004048
X+003713Y+003794
X+003713Y+003540
X+003713Y+003286
X+003713Y+003032
X+003713Y+002778
X+003713Y+002524
X+003713Y+002270
X+003713Y+002016
X+003459Y+002016
X+003459Y+002270
X+003459Y+002524
X+003459Y+002778
X+003459Y+003032
X+003459Y+003286
X+003459Y+003540
X+003459Y+003794
X+003459Y+004048
X+003459Y+004302
X+003459Y+004556
X+003459Y+004810
X+003459Y+005064
X+003459Y+005318
X+003459Y+005572
X+003459Y+005826
X+003459Y+006080
X+003459Y+006334
X+003459Y+006588
X+003459Y+006842
T02
X+002919Y+007826
X+002919Y+007064
T04
X+003269Y+007826
X+003719Y+007826
X+003719Y+007176
X+003269Y+007176
T03
X+003205Y+006461
X+003205Y+006207
X+003205Y+005953
X+003205Y+005699
X+003205Y+005445
X+003205Y+005191
X+003205Y+004937
X+003205Y+004683
X+002443Y+004683
X+002443Y+004937
X+002443Y+005191
X+002443Y+005445
X+002443Y+005699
X+002443Y+005953
X+002443Y+006207
X+002443Y+006461
X+002062Y+001889
X+001808Y+001889
X+001554Y+001889
T01
X+002802Y+005924
X+002802Y+005723
X+003042Y+004402
X+002060Y+005841
X+003133Y+006620
X+002668Y+005924
X+002668Y+006334
X+001745Y+004837
T00
M30
