G04 DipTrace 3.2.0.1*
G04 Top.gbr*
%MOMM*%
G04 #@! TF.FileFunction,Copper,L1,Top*
G04 #@! TF.Part,Single*
G04 #@! TA.AperFunction,Conductor*
%ADD13C,0.33*%
G04 #@! TA.AperFunction,ComponentPad*
%ADD14R,1.6X1.6*%
%ADD15C,1.6*%
%ADD16C,1.5*%
%ADD17R,1.5X1.5*%
%ADD18O,2.0X4.5*%
%ADD19O,2.0X5.0*%
%ADD20O,4.5X2.0*%
%ADD21C,1.62*%
%ADD22R,1.62X1.62*%
%ADD23C,1.27*%
%ADD24C,1.27*%
%ADD25R,1.7X1.7*%
%ADD26C,1.7*%
%ADD27C,1.5*%
G04 #@! TA.AperFunction,ViaPad*
%ADD28C,1.016*%
%FSLAX35Y35*%
G04*
G71*
G90*
G75*
G01*
G04 Top*
%LPD*%
X2802400Y5723201D2*
D13*
Y5923800D1*
X3459000Y4556000D2*
X3078000D1*
X2443000Y5191000D1*
X3041681Y4402300D2*
Y4113999D1*
X3107680Y4048000D1*
X3459000D1*
X2443000Y4937000D2*
X1678501Y4172501D1*
Y1764499D1*
X1744500Y1698500D1*
X3777501D1*
X3843500Y1764499D1*
Y3917500D1*
X3713000Y4048000D1*
X1935000Y4937000D2*
X2059501Y5061501D1*
Y5249501D1*
X2125500Y5315501D1*
X2836700D1*
X2902699Y5381500D1*
Y5759998D1*
X2968701Y5826000D1*
X3459000D1*
Y6842000D2*
X1876499D1*
X1810499Y6776001D1*
Y5315501D1*
X1935000Y5191000D1*
X3132549Y6619801D2*
X2125503D1*
X2059501Y6553799D1*
Y5840709D1*
X2667800Y5923800D2*
Y5635500D1*
X2601801Y5569501D1*
X2059501D1*
X1935000Y5445000D1*
X2667800Y6334000D2*
X3459000D1*
X1744500Y4836700D2*
Y6842000D1*
X1810499Y6907999D1*
X3230250D1*
X3294751Y6972500D1*
X3777501D1*
X3843500Y6906501D1*
Y5956500D1*
X3713000Y5826000D1*
X3459000Y3794000D2*
X2508999D1*
X2443000Y3859999D1*
Y4683000D1*
X3205000Y6461000D2*
X2632250D1*
X2502751Y6331501D1*
X2255002D1*
X2189000Y6265499D1*
Y5953000D1*
X3459000Y6080000D2*
X2379500D1*
X2313501Y6014001D1*
Y5823501D1*
X2189000Y5699000D1*
X2062000Y1889000D2*
Y2524000D1*
X1935000Y2651000D1*
Y2905000D2*
X1810499Y3029501D1*
Y3471499D1*
X1876501Y3537501D1*
X3020748D1*
X3272249Y3286000D1*
X3459000D1*
Y3032000D2*
X3146499D1*
X3080499Y3097999D1*
Y3222500D1*
X3014500Y3288499D1*
X2318499D1*
X2189000Y3159000D1*
X3459000Y2778000D2*
D3*
X3456501Y2775501D2*
X2125500D1*
X2059501Y2841500D1*
Y3034499D1*
X1935000Y3159000D1*
D28*
X2802400Y5923800D3*
Y5723201D3*
X3041681Y4402300D3*
X2059501Y5840709D3*
X3132549Y6619801D3*
X2667800Y5923800D3*
Y6334000D3*
X1744500Y4836700D3*
D14*
X2951000Y2397000D3*
D15*
Y2143000D3*
D14*
Y2905000D3*
D15*
Y3159000D3*
D16*
X1935000Y5953000D3*
Y5699000D3*
Y5445000D3*
Y5191000D3*
Y4937000D3*
D17*
X2189000D3*
D16*
Y5191000D3*
Y5445000D3*
Y5699000D3*
Y5953000D3*
X1935000Y3667000D3*
Y3413000D3*
Y3159000D3*
Y2905000D3*
Y2651000D3*
D17*
X2189000D3*
D16*
Y2905000D3*
Y3159000D3*
Y3413000D3*
Y3667000D3*
D18*
X1808000Y7350000D3*
D19*
X2408000D3*
D20*
X2108000Y7820000D3*
D21*
X3713000Y6842000D3*
Y6588000D3*
Y6334000D3*
Y6080000D3*
Y5826000D3*
Y5572000D3*
Y5318000D3*
Y5064000D3*
Y4810000D3*
Y4556000D3*
Y4302000D3*
Y4048000D3*
Y3794000D3*
Y3540000D3*
Y3286000D3*
Y3032000D3*
Y2778000D3*
Y2524000D3*
Y2270000D3*
Y2016000D3*
X3459000D3*
Y2270000D3*
Y2524000D3*
Y2778000D3*
Y3032000D3*
Y3286000D3*
Y3540000D3*
Y3794000D3*
Y4048000D3*
Y4302000D3*
Y4556000D3*
Y4810000D3*
Y5064000D3*
Y5318000D3*
Y5572000D3*
Y5826000D3*
Y6080000D3*
Y6334000D3*
Y6588000D3*
D22*
Y6842000D3*
D23*
X2919250Y7826250D3*
D24*
Y7064250D3*
D25*
X3268500Y7826250D3*
D26*
X3718500D3*
Y7176250D3*
X3268500D3*
D17*
X3205000Y6461000D3*
D27*
Y6207000D3*
Y5953000D3*
Y5699000D3*
Y5445000D3*
Y5191000D3*
Y4937000D3*
Y4683000D3*
X2443000D3*
Y4937000D3*
Y5191000D3*
Y5445000D3*
Y5699000D3*
Y5953000D3*
Y6207000D3*
Y6461000D3*
D16*
X2062000Y1889000D3*
X1808000D3*
X1554000D3*
M02*
