G04 DipTrace 3.2.0.1*
G04 TopSilk.gbr*
%MOMM*%
G04 #@! TF.FileFunction,Legend,Top*
G04 #@! TF.Part,Single*
%ADD10C,0.25*%
%ADD62C,0.19608*%
%ADD63C,0.23529*%
%FSLAX35Y35*%
G04*
G71*
G90*
G75*
G01*
G04 TopSilk*
%LPD*%
X2316000Y6461000D2*
D10*
X1046000D1*
Y4429000D1*
X2316000D1*
Y6461000D1*
Y5699000D2*
Y5318000D1*
X2300125Y5699000D2*
Y5191000D1*
X2316000Y4175000D2*
X1046000D1*
Y2143000D1*
X2316000D1*
Y4175000D1*
Y3413000D2*
Y3032000D1*
X2300125Y3413000D2*
Y2905000D1*
X3840000Y6994000D2*
X3332000D1*
Y1864000D1*
X3840000D1*
Y6994000D1*
X1168554Y6646987D2*
D62*
Y6549840D1*
X1162517Y6531590D1*
X1156340Y6525554D1*
X1144267Y6519377D1*
X1132054D1*
X1119981Y6525554D1*
X1113944Y6531590D1*
X1107767Y6549840D1*
Y6561914D1*
X1207769Y6622560D2*
X1219983Y6628737D1*
X1238233Y6646846D1*
Y6519377D1*
X1141249Y2074987D2*
Y1977840D1*
X1135212Y1959590D1*
X1129035Y1953554D1*
X1116962Y1947377D1*
X1104749D1*
X1092676Y1953554D1*
X1086639Y1959590D1*
X1080462Y1977840D1*
Y1989914D1*
X1186641Y2044523D2*
Y2050560D1*
X1192678Y2062773D1*
X1198715Y2068810D1*
X1210928Y2074846D1*
X1235215D1*
X1247288Y2068810D1*
X1253324Y2062773D1*
X1259501Y2050560D1*
Y2038487D1*
X1253324Y2026273D1*
X1241251Y2008164D1*
X1180465Y1947377D1*
X1265538D1*
X3206800Y1969002D2*
Y2023612D1*
X3200623Y2041862D1*
X3194587Y2048039D1*
X3182514Y2054075D1*
X3170300D1*
X3158227Y2048039D1*
X3152050Y2041862D1*
X3146013Y2023612D1*
Y1969002D1*
X3273623D1*
X3206800Y2011539D2*
X3273623Y2054075D1*
X3188550Y2166151D2*
X3273623Y2166150D1*
X3206800D2*
X3194587Y2154077D1*
X3188550Y2141864D1*
Y2123754D1*
X3194587Y2111541D1*
X3206800Y2099468D1*
X3225050Y2093291D1*
X3237123D1*
X3255373Y2099468D1*
X3267446Y2111541D1*
X3273623Y2123754D1*
Y2141864D1*
X3267446Y2154077D1*
X3255373Y2166150D1*
X3206800Y2272189D2*
X3194587Y2266153D1*
X3188550Y2247903D1*
Y2229653D1*
X3194587Y2211403D1*
X3206800Y2205366D1*
X3218873Y2211403D1*
X3225050Y2223616D1*
X3231087Y2253939D1*
X3237123Y2266153D1*
X3249337Y2272189D1*
X3255373D1*
X3267446Y2266153D1*
X3273623Y2247903D1*
Y2229653D1*
X3267446Y2211403D1*
X3255373Y2205366D1*
X3188550Y2311405D2*
X3316160D1*
X3206800D2*
X3194727Y2323618D1*
X3188550Y2335691D1*
Y2353941D1*
X3194727Y2366155D1*
X3206800Y2378228D1*
X3225050Y2384405D1*
X3237263D1*
X3255373Y2378228D1*
X3267587Y2366155D1*
X3273623Y2353941D1*
Y2335691D1*
X3267587Y2323618D1*
X3255373Y2311405D1*
X3146013Y2423621D2*
X3273623D1*
X3206800D2*
X3194587Y2435834D1*
X3188550Y2447907D1*
Y2466157D1*
X3194587Y2478230D1*
X3206800Y2490444D1*
X3225050Y2496480D1*
X3237123D1*
X3255373Y2490444D1*
X3267446Y2478230D1*
X3273623Y2466157D1*
Y2447907D1*
X3267446Y2435834D1*
X3255373Y2423621D1*
X3225050Y2535696D2*
Y2608555D1*
X3212837D1*
X3200623Y2602519D1*
X3194587Y2596482D1*
X3188550Y2584269D1*
Y2566019D1*
X3194587Y2553946D1*
X3206800Y2541732D1*
X3225050Y2535696D1*
X3237123D1*
X3255373Y2541732D1*
X3267446Y2553946D1*
X3273623Y2566019D1*
Y2584269D1*
X3267446Y2596482D1*
X3255373Y2608555D1*
X3188550Y2647771D2*
X3273623D1*
X3225050D2*
X3206800Y2653948D1*
X3194587Y2666021D1*
X3188550Y2678235D1*
Y2696485D1*
Y2735700D2*
X3273623D1*
X3225050D2*
X3206800Y2741877D1*
X3194587Y2753950D1*
X3188550Y2766164D1*
Y2784414D1*
Y2829806D2*
X3273623Y2866166D1*
X3297910Y2854093D1*
X3310123Y2841879D1*
X3316160Y2829806D1*
Y2823629D1*
X3188550Y2902666D2*
X3273623Y2866166D1*
X3212837Y2941882D2*
X3212836Y2996632D1*
X3206800Y3014741D1*
X3200623Y3020918D1*
X3188550Y3026955D1*
X3170300D1*
X3158227Y3020918D1*
X3152050Y3014741D1*
X3146013Y2996632D1*
Y2941882D1*
X3273623D1*
X3146013Y3066170D2*
X3152050Y3072207D1*
X3146013Y3078384D1*
X3139837Y3072207D1*
X3146013Y3066170D1*
X3188550Y3072207D2*
X3273623D1*
Y3178386D2*
X3146154D1*
X3231086Y3117600D1*
Y3208709D1*
X3146154Y3284425D2*
X3152190Y3266175D1*
X3170440Y3253961D1*
X3200763Y3247925D1*
X3219013D1*
X3249336Y3253961D1*
X3267586Y3266175D1*
X3273623Y3284425D1*
Y3296498D1*
X3267586Y3314748D1*
X3249336Y3326821D1*
X3219013Y3332998D1*
X3200763D1*
X3170440Y3326821D1*
X3152190Y3314748D1*
X3146154Y3296498D1*
Y3284425D1*
X3170440Y3326821D2*
X3249336Y3253961D1*
X3407265Y7161604D2*
D63*
X3421921Y7169017D1*
X3443821Y7190748D1*
Y7037785D1*
M02*
